<svg xmlns="http://www.w3.org/2000/svg" width="387" height="104" fill="none" viewBox="0 0 387 104">
  <path stroke="#612CFE" stroke-linejoin="bevel" stroke-width="8" d="M61 6v91.404H11V54.5h32v24.716H26.5"/>
  <path stroke="#2CA6E7" stroke-linejoin="bevel" stroke-width="8" d="M54 0v91.404H4V48.5h32v24.716H19.5"/>
  <path stroke="#000" stroke-linejoin="bevel" stroke-width="8" d="M57 1.865V93.27H7V50.365h32v24.717H22.5"/>
  <mask id="a" width="43" height="42" x="294" y="61.697" fill="#000" maskUnits="userSpaceOnUse">
    <path fill="#fff" d="M294 61.697h43v42h-43z"/>
    <path d="M315.505 95.099c3.505 0 6.392-1.168 8.66-3.505 2.337-2.337 3.505-5.361 3.505-9.072 0-3.712-1.168-6.736-3.505-9.073-2.268-2.336-5.155-3.505-8.66-3.505s-6.392 1.169-8.66 3.505c-2.268 2.337-3.402 5.361-3.402 9.073 0 3.711 1.134 6.7 3.402 8.969 2.268 2.405 5.155 3.608 8.66 3.608Zm0 7.217c-5.773 0-10.584-1.891-14.433-5.67-3.849-3.85-5.773-8.557-5.773-14.124s1.924-10.24 5.773-14.02c3.849-3.85 8.66-5.774 14.433-5.774s10.584 1.924 14.433 5.773c3.849 3.78 5.773 8.454 5.773 14.02 0 5.361-1.924 10.035-5.773 14.021-3.849 3.849-8.66 5.774-14.433 5.774Z"/>
  </mask>
  <path fill="#612CFE" d="M315.505 95.099c3.505 0 6.392-1.168 8.66-3.505 2.337-2.337 3.505-5.361 3.505-9.072 0-3.712-1.168-6.736-3.505-9.073-2.268-2.336-5.155-3.505-8.66-3.505s-6.392 1.169-8.66 3.505c-2.268 2.337-3.402 5.361-3.402 9.073 0 3.711 1.134 6.7 3.402 8.969 2.268 2.405 5.155 3.608 8.66 3.608Zm0 7.217c-5.773 0-10.584-1.891-14.433-5.67-3.849-3.85-5.773-8.557-5.773-14.124s1.924-10.24 5.773-14.02c3.849-3.85 8.66-5.774 14.433-5.774s10.584 1.924 14.433 5.773c3.849 3.78 5.773 8.454 5.773 14.02 0 5.361-1.924 10.035-5.773 14.021-3.849 3.849-8.66 5.774-14.433 5.774Z"/>
  <path fill="#612CFE" fill-opacity=".9" d="m324.165 91.594-.707-.707-.005.005-.006.005.718.697Zm0-18.144-.718.696.006.005.005.006.707-.707Zm-17.32 0-.717-.697.717.697Zm0 18.04.728-.685-.01-.01-.011-.011-.707.707Zm-5.773 5.155-.707.708.006.006.701-.714Zm0-28.144.701.714.006-.007-.707-.707Zm28.866 0-.707.707.006.007.701-.714Zm0 28.041.707.707.006-.006.007-.006-.72-.695Zm-14.433-.443c3.753 0 6.906-1.262 9.378-3.809l-1.436-1.393c-2.064 2.127-4.684 3.202-7.942 3.202v2Zm9.367-3.798c2.548-2.548 3.798-5.838 3.798-9.78h-2c0 3.483-1.087 6.24-3.212 8.366l1.414 1.414Zm3.798-9.78c0-3.94-1.25-7.23-3.798-9.779l-1.414 1.415c2.125 2.125 3.212 4.883 3.212 8.365h2Zm-3.787-9.768c-2.472-2.547-5.625-3.809-9.378-3.809v2c3.258 0 5.878 1.075 7.942 3.202l1.436-1.393Zm-9.378-3.809c-3.752 0-6.905 1.262-9.377 3.81l1.435 1.392c2.064-2.127 4.684-3.202 7.942-3.202v-2Zm-9.377 3.81c-2.475 2.549-3.685 5.836-3.685 9.768h2c0-3.49 1.059-6.252 3.12-8.376l-1.435-1.393Zm-3.685 9.768c0 3.931 1.21 7.19 3.695 9.676l1.414-1.414c-2.05-2.051-3.109-4.771-3.109-8.262h-2Zm3.675 9.655c2.469 2.619 5.625 3.922 9.387 3.922v-2c-3.248 0-5.865-1.102-7.932-3.294l-1.455 1.372Zm9.387 9.139c-5.531 0-10.084-1.801-13.732-5.384l-1.402 1.427c4.05 3.977 9.119 5.957 15.134 5.957v-2Zm-13.726-5.378c-3.656-3.656-5.48-8.108-5.48-13.416h-2c0 5.825 2.025 10.79 6.066 14.83l1.414-1.414Zm-5.48-13.416c0-5.309 1.823-9.722 5.474-13.308l-1.402-1.426c-4.047 3.974-6.072 8.908-6.072 14.734h2Zm5.48-13.314c3.649-3.649 8.2-5.48 13.726-5.48v-2c-6.02 0-11.091 2.017-15.14 6.066l1.414 1.414Zm13.726-5.48c5.526 0 10.077 1.831 13.726 5.48l1.414-1.414c-4.048-4.049-9.119-6.066-15.14-6.066v2Zm13.732 5.486c3.651 3.586 5.474 8 5.474 13.308h2c0-5.826-2.025-10.76-6.072-14.734l-1.402 1.427Zm5.474 13.308c0 5.092-1.817 9.519-5.492 13.326l1.439 1.389c4.022-4.166 6.053-9.086 6.053-14.715h-2Zm-5.48 13.313c-3.649 3.65-8.2 5.481-13.726 5.481v2c6.021 0 11.092-2.018 15.14-6.067l-1.414-1.414Z" mask="url(#a)"/>
  <mask id="b" width="43" height="42" x="290" y="58" fill="#000" maskUnits="userSpaceOnUse">
    <path fill="#fff" d="M290 58h43v42h-43z"/>
    <path d="M311.505 91.402c3.505 0 6.392-1.168 8.66-3.505 2.337-2.337 3.505-5.36 3.505-9.072 0-3.712-1.168-6.736-3.505-9.072-2.268-2.337-5.155-3.506-8.66-3.506s-6.392 1.169-8.66 3.506c-2.268 2.336-3.402 5.36-3.402 9.072 0 3.711 1.134 6.7 3.402 8.969 2.268 2.405 5.155 3.608 8.66 3.608Zm0 7.217c-5.773 0-10.584-1.89-14.433-5.67-3.849-3.85-5.773-8.557-5.773-14.124s1.924-10.24 5.773-14.02c3.849-3.85 8.66-5.774 14.433-5.774s10.584 1.924 14.433 5.773c3.849 3.78 5.773 8.454 5.773 14.02 0 5.362-1.924 10.035-5.773 14.021-3.849 3.85-8.66 5.774-14.433 5.774Z"/>
  </mask>
  <path fill="#2CA6E7" d="M311.505 91.402c3.505 0 6.392-1.168 8.66-3.505 2.337-2.337 3.505-5.36 3.505-9.072 0-3.712-1.168-6.736-3.505-9.072-2.268-2.337-5.155-3.506-8.66-3.506s-6.392 1.169-8.66 3.506c-2.268 2.336-3.402 5.36-3.402 9.072 0 3.711 1.134 6.7 3.402 8.969 2.268 2.405 5.155 3.608 8.66 3.608Zm0 7.217c-5.773 0-10.584-1.89-14.433-5.67-3.849-3.85-5.773-8.557-5.773-14.124s1.924-10.24 5.773-14.02c3.849-3.85 8.66-5.774 14.433-5.774s10.584 1.924 14.433 5.773c3.849 3.78 5.773 8.454 5.773 14.02 0 5.362-1.924 10.035-5.773 14.021-3.849 3.85-8.66 5.774-14.433 5.774Z"/>
  <path fill="#2CA6E7" fill-opacity=".8" d="m320.165 87.897-.707-.707-.005.005-.006.005.718.697Zm0-18.144-.718.696.006.005.005.006.707-.707Zm-17.32 0-.717-.697.717.697Zm0 18.04.728-.685-.01-.01-.011-.011-.707.707Zm-5.773 5.155-.707.708.006.006.701-.714Zm0-28.144.701.714.006-.007-.707-.707Zm28.866 0-.707.707.006.007.701-.714Zm0 28.041.707.707.006-.006.007-.006-.72-.695Zm-14.433-.443c3.753 0 6.906-1.262 9.378-3.809l-1.436-1.393c-2.064 2.127-4.684 3.202-7.942 3.202v2Zm9.367-3.798c2.548-2.548 3.798-5.838 3.798-9.78h-2c0 3.483-1.087 6.24-3.212 8.366l1.414 1.414Zm3.798-9.78c0-3.94-1.25-7.23-3.798-9.778l-1.414 1.414c2.125 2.125 3.212 4.883 3.212 8.365h2Zm-3.787-9.768c-2.472-2.547-5.625-3.809-9.378-3.809v2c3.258 0 5.878 1.075 7.942 3.202l1.436-1.393Zm-9.378-3.809c-3.752 0-6.905 1.262-9.377 3.81l1.435 1.392c2.064-2.127 4.684-3.202 7.942-3.202v-2Zm-9.377 3.81c-2.475 2.549-3.685 5.836-3.685 9.768h2c0-3.49 1.059-6.252 3.12-8.376l-1.435-1.393Zm-3.685 9.768c0 3.931 1.21 7.19 3.695 9.676l1.414-1.414c-2.05-2.051-3.109-4.771-3.109-8.262h-2Zm3.675 9.655c2.469 2.619 5.625 3.922 9.387 3.922v-2c-3.248 0-5.865-1.102-7.932-3.294l-1.455 1.372Zm9.387 9.139c-5.531 0-10.084-1.801-13.732-5.384l-1.402 1.427c4.05 3.977 9.119 5.957 15.134 5.957v-2Zm-13.726-5.378c-3.656-3.656-5.48-8.108-5.48-13.416h-2c0 5.825 2.025 10.79 6.066 14.83l1.414-1.414Zm-5.48-13.416c0-5.309 1.823-9.722 5.474-13.307l-1.402-1.427c-4.047 3.974-6.072 8.908-6.072 14.734h2Zm5.48-13.314c3.649-3.649 8.2-5.48 13.726-5.48v-2c-6.02 0-11.091 2.017-15.14 6.066l1.414 1.414Zm13.726-5.48c5.526 0 10.077 1.831 13.726 5.48l1.414-1.414c-4.048-4.049-9.119-6.066-15.14-6.066v2Zm13.732 5.487c3.651 3.585 5.474 7.998 5.474 13.307h2c0-5.826-2.025-10.76-6.072-14.734l-1.402 1.427Zm5.474 13.307c0 5.092-1.817 9.519-5.492 13.326l1.439 1.389c4.022-4.166 6.053-9.086 6.053-14.715h-2Zm-5.48 13.313c-3.649 3.65-8.2 5.48-13.726 5.48v2c6.021 0 11.092-2.017 15.14-6.066l-1.414-1.414Z" mask="url(#b)"/>
  <mask id="c" width="293" height="57" x="79" y="44.849" fill="#000" maskUnits="userSpaceOnUse">
    <path fill="#fff" d="M79 44.849h293v57H79z"/>
    <path d="M104.082 57.168v42.68h-8.556v-42.68H80.268v-7.732h39.072v7.732h-15.258Zm59.117 27.01h-30.103c.206 2.75 1.477 4.983 3.814 6.701 2.337 1.719 5.052 2.578 8.144 2.578 4.88 0 8.523-1.512 10.928-4.536l4.639 5.051c-4.123 4.33-9.518 6.495-16.185 6.495-5.498 0-10.103-1.821-13.815-5.464-3.711-3.642-5.567-8.454-5.567-14.433 0-5.842 1.89-10.584 5.671-14.227 3.78-3.642 8.35-5.464 13.711-5.464 5.361 0 9.828 1.616 13.402 4.846s5.361 7.526 5.361 12.886v5.567Zm-8.041-6.391c0-3.093-.997-5.533-2.99-7.32-1.925-1.787-4.433-2.68-7.526-2.68s-5.808.927-8.144 2.783c-2.268 1.856-3.402 4.261-3.402 7.217h22.062Zm25.041 5.567v16.495h-8.041V61.498h8.041v7.629c1.306-2.406 3.058-4.364 5.258-5.876 2.268-1.512 4.639-2.303 7.113-2.372l.103 8.145h-.412c-3.918 0-6.908 1.271-8.969 3.814-2.062 2.543-3.093 6.048-3.093 10.516Zm28.613 16.495h-8.041V46.343h8.041v31.444l15.567-16.289h10.412l-14.536 15.155 15.67 23.195h-9.896l-11.341-16.804-5.876 5.877v10.927Zm64.466-18.351 13.196 18.35H275.65l-12.062-17.01h-11.134v17.01h-8.557V49.437h18.763c7.629 0 13.093 1.306 16.392 3.918 3.367 2.543 5.051 6.7 5.051 12.474 0 8.316-3.608 13.54-10.825 15.67Zm-10.309-6.289c4.742 0 8.007-.721 9.794-2.165 1.787-1.443 2.68-3.883 2.68-7.32 0-3.298-.893-5.532-2.68-6.7-1.787-1.237-4.983-1.856-9.588-1.856h-10.721V75.21h10.515Zm49.962 18.042c3.505 0 6.392-1.169 8.66-3.506 2.337-2.336 3.505-5.36 3.505-9.072 0-3.711-1.168-6.735-3.505-9.072-2.268-2.337-5.155-3.505-8.66-3.505s-6.392 1.168-8.66 3.505c-2.268 2.337-3.402 5.36-3.402 9.072 0 3.712 1.134 6.701 3.402 8.97 2.268 2.405 5.155 3.608 8.66 3.608Zm0 7.216c-5.773 0-10.584-1.89-14.433-5.67-3.849-3.849-5.773-8.557-5.773-14.124s1.924-10.24 5.773-14.02c3.849-3.85 8.66-5.774 14.433-5.774s10.584 1.925 14.433 5.774c3.849 3.78 5.773 8.453 5.773 14.02 0 5.361-1.924 10.035-5.773 14.02-3.849 3.85-8.66 5.774-14.433 5.774Zm37.385-.618h-8.041V46.343h8.041v53.505Zm19.824 0h-8.041V46.343h8.041v53.505Z"/>
  </mask>
  <path fill="#000" d="M104.082 57.168v42.68h-8.556v-42.68H80.268v-7.732h39.072v7.732h-15.258Zm59.117 27.01h-30.103c.206 2.75 1.477 4.983 3.814 6.701 2.337 1.719 5.052 2.578 8.144 2.578 4.88 0 8.523-1.512 10.928-4.536l4.639 5.051c-4.123 4.33-9.518 6.495-16.185 6.495-5.498 0-10.103-1.821-13.815-5.464-3.711-3.642-5.567-8.454-5.567-14.433 0-5.842 1.89-10.584 5.671-14.227 3.78-3.642 8.35-5.464 13.711-5.464 5.361 0 9.828 1.616 13.402 4.846s5.361 7.526 5.361 12.886v5.567Zm-8.041-6.391c0-3.093-.997-5.533-2.99-7.32-1.925-1.787-4.433-2.68-7.526-2.68s-5.808.927-8.144 2.783c-2.268 1.856-3.402 4.261-3.402 7.217h22.062Zm25.041 5.567v16.495h-8.041V61.498h8.041v7.629c1.306-2.406 3.058-4.364 5.258-5.876 2.268-1.512 4.639-2.303 7.113-2.372l.103 8.145h-.412c-3.918 0-6.908 1.271-8.969 3.814-2.062 2.543-3.093 6.048-3.093 10.516Zm28.613 16.495h-8.041V46.343h8.041v31.444l15.567-16.289h10.412l-14.536 15.155 15.67 23.195h-9.896l-11.341-16.804-5.876 5.877v10.927Zm64.466-18.351 13.196 18.35H275.65l-12.062-17.01h-11.134v17.01h-8.557V49.437h18.763c7.629 0 13.093 1.306 16.392 3.918 3.367 2.543 5.051 6.7 5.051 12.474 0 8.316-3.608 13.54-10.825 15.67Zm-10.309-6.289c4.742 0 8.007-.721 9.794-2.165 1.787-1.443 2.68-3.883 2.68-7.32 0-3.298-.893-5.532-2.68-6.7-1.787-1.237-4.983-1.856-9.588-1.856h-10.721V75.21h10.515Zm49.962 18.042c3.505 0 6.392-1.169 8.66-3.506 2.337-2.336 3.505-5.36 3.505-9.072 0-3.711-1.168-6.735-3.505-9.072-2.268-2.337-5.155-3.505-8.66-3.505s-6.392 1.168-8.66 3.505c-2.268 2.337-3.402 5.36-3.402 9.072 0 3.712 1.134 6.701 3.402 8.97 2.268 2.405 5.155 3.608 8.66 3.608Zm0 7.216c-5.773 0-10.584-1.89-14.433-5.67-3.849-3.849-5.773-8.557-5.773-14.124s1.924-10.24 5.773-14.02c3.849-3.85 8.66-5.774 14.433-5.774s10.584 1.925 14.433 5.774c3.849 3.78 5.773 8.453 5.773 14.02 0 5.361-1.924 10.035-5.773 14.02-3.849 3.85-8.66 5.774-14.433 5.774Zm37.385-.618h-8.041V46.343h8.041v53.505Zm19.824 0h-8.041V46.343h8.041v53.505Z"/>
  <path fill="#000" d="M104.082 57.168v-1h-1v1h1Zm0 42.68v1.001h1v-1h-1Zm-8.556 0h-1v1.001h1v-1Zm0-42.68h1v-1h-1v1Zm-15.258 0h-1v1h1v-1Zm0-7.732v-1h-1v1h1Zm39.072 0h1v-1h-1v1Zm0 7.732v1h1v-1h-1Zm-16.258 0v42.68h2v-42.68h-2Zm1 41.68h-8.556v2.001h8.556v-2Zm-7.556 1v-42.68h-2v42.68h2Zm-1-43.68H80.268v2h15.258v-2Zm-14.258 1v-7.732h-2v7.732h2Zm-1-6.732h39.072v-2H80.268v2Zm38.072-1v7.732h2v-7.732h-2Zm1 6.732h-15.258v2h15.258v-2Zm43.859 28.01v1h1v-1h-1Zm-30.103 0v-1h-1.078l.08 1.075.998-.075Zm3.814 6.701-.592.806.592-.806Zm19.072-1.958.737-.677-.791-.861-.728.915.782.623Zm4.639 5.051.725.69.645-.677-.633-.69-.737.677Zm-30 1.031-.7.714.7-.714Zm.104-28.66-.694-.72.694.72Zm24.433 11.444v1h1v-1h-1Zm-2.99-7.32-.681.733.007.006.006.006.668-.745Zm-15.67.103-.622-.783-.006.005-.006.004.634.774Zm-3.402 7.217h-1v1h1v-1Zm30.103 5.391h-30.103v2h30.103v-2Zm-31.101 1.075c.23 3.057 1.662 5.551 4.22 7.432l1.184-1.611c-2.115-1.556-3.226-3.53-3.409-5.97l-1.995.15Zm4.22 7.432c2.52 1.853 5.446 2.772 8.736 2.772v-2c-2.894 0-5.398-.8-7.552-2.383l-1.184 1.611Zm8.736 2.772c5.097 0 9.067-1.59 11.711-4.914l-1.565-1.245c-2.168 2.725-5.483 4.159-10.146 4.159v2Zm10.192-4.86 4.639 5.052 1.473-1.353-4.639-5.052-1.473 1.353Zm4.651 3.686c-3.912 4.108-9.033 6.184-15.461 6.184v2c6.905 0 12.574-2.253 16.91-6.805l-1.449-1.38Zm-15.461 6.184c-5.253 0-9.601-1.73-13.114-5.177l-1.401 1.427c3.91 3.837 8.771 5.75 14.515 5.75v-2Zm-13.114-5.177c-3.491-3.427-5.268-7.965-5.268-13.72h-2c0 6.204 1.935 11.288 5.867 15.147l1.401-1.427Zm-5.268-13.72c0-5.604 1.803-10.075 5.364-13.507l-1.387-1.44c-3.999 3.854-5.977 8.867-5.977 14.947h2Zm5.364-13.507c3.59-3.458 7.91-5.184 13.018-5.184v-2c-5.614 0-10.435 1.918-14.405 5.744l1.387 1.44Zm13.018-5.184c5.143 0 9.363 1.543 12.731 4.588l1.341-1.484c-3.778-3.416-8.494-5.104-14.072-5.104v2Zm12.731 4.588c3.34 3.018 5.032 7.03 5.032 12.144h2c0-5.608-1.882-10.186-5.691-13.628l-1.341 1.484Zm5.032 12.144v5.567h2v-5.567h-2Zm-6.041-.824c0-3.329-1.084-6.058-3.323-8.065l-1.335 1.49c1.748 1.567 2.658 3.717 2.658 6.575h2Zm-3.31-8.053c-2.141-1.988-4.909-2.947-8.206-2.947v2c2.888 0 5.138.828 6.845 2.413l1.361-1.466Zm-8.206-2.947c-3.31 0-6.246.998-8.766 3l1.244 1.566c2.153-1.71 4.646-2.566 7.522-2.566v-2Zm-8.778 3.01c-2.502 2.047-3.768 4.737-3.768 7.99h2c0-2.659 1.001-4.779 3.035-6.443l-1.267-1.548Zm-2.768 8.99h22.062v-2h-22.062v2Zm47.103 21.061v1.001h1v-1h-1Zm-8.041 0h-1v1.001h1v-1Zm0-38.35v-1h-1v1h1Zm8.041 0h1v-1h-1v1Zm0 7.629h-1l1.879.477-.879-.477Zm5.258-5.876-.555-.832-.006.004-.006.003.567.825Zm7.113-2.372 1-.012-.013-1.015-1.015.028.028 1Zm.103 8.145v1h1.013l-.013-1.013-1 .013Zm-9.381 3.814.776.63-.776-.63Zm-4.093 10.516v16.495h2V83.353h-2Zm1 15.495h-8.041v2h8.041v-2Zm-7.041 1V61.498h-2v38.35h2Zm-1-37.351h8.041v-2h-8.041v2Zm7.041-1v7.629h2v-7.629h-2Zm1.879 8.106c1.232-2.27 2.879-4.11 4.945-5.53l-1.133-1.648c-2.333 1.604-4.191 3.683-5.57 6.224l1.758.954Zm4.933-5.521c2.128-1.42 4.319-2.141 6.587-2.204l-.056-2c-2.681.075-5.232.934-7.64 2.54l1.109 1.664Zm5.559-3.19.103 8.143 2-.025-.103-8.144-2 .025Zm1.103 7.13h-.412v2h.412v-2Zm-.412 0c-4.154 0-7.457 1.362-9.746 4.185l1.553 1.26c1.834-2.262 4.511-3.444 8.193-3.444v-2Zm-9.746 4.185c-2.251 2.777-3.316 6.532-3.316 11.146h2c0-4.322.997-7.576 2.869-9.886l-1.553-1.26Zm26.297 27.64v1.001h1v-1h-1Zm-8.041 0h-1v1.001h1v-1Zm0-53.505v-1h-1v1h1Zm8.041 0h1v-1h-1v1Zm0 31.444h-1v2.493l1.723-1.802-.723-.691Zm15.567-16.289v-1h-.427l-.296.31.723.69Zm10.412 0 .722.692 1.623-1.692h-2.345v1Zm-14.536 15.155-.721-.693-.559.583.452.67.828-.56Zm15.67 23.195v1.001h1.883l-1.054-1.56-.829.56Zm-9.896 0-.829.56.297.441h.532v-1Zm-11.341-16.804.829-.559-.678-1.005-.858.857.707.707Zm-5.876 5.877-.707-.707-.293.293v.414h1Zm0 9.927h-8.041v2.001h8.041v-2Zm-7.041 1V46.343h-2v53.505h2Zm-1-52.505h8.041v-2h-8.041v2Zm7.041-1v31.444h2V46.343h-2Zm1.723 32.135 15.567-16.29-1.446-1.38-15.567 16.288 1.446 1.382Zm14.844-15.98h10.412v-2h-10.412v2Zm9.691-1.692L219.534 75.96l1.443 1.385 14.536-15.155-1.443-1.384Zm-14.643 16.406 15.67 23.196 1.657-1.12-15.67-23.195-1.657 1.12Zm16.498 21.636h-9.896v2.001h9.896v-2Zm-9.068.441-11.34-16.804-1.658 1.119 11.341 16.804 1.657-1.119Zm-12.876-16.952-5.876 5.877 1.414 1.414 5.876-5.877-1.414-1.414Zm-6.169 6.584v10.927h2V88.922h-2Zm65.466-7.423-.283-.96-1.351.4.823 1.144.811-.584Zm13.196 18.35v1.001h1.951l-1.139-1.584-.812.584Zm-10.824 0-.816.579.299.422h.517v-1Zm-12.062-17.01.815-.578-.298-.422h-.517v1Zm-11.134 0v-1h-1v1h1Zm0 17.01v1.001h1v-1h-1Zm-8.557 0h-1v1.001h1v-1Zm0-50.412v-1h-1v1h1Zm35.155 3.918-.621.784.009.007.009.007.603-.798Zm-6.289 19.69-.628-.778.628.778Zm0-14.02-.569.822.011.008.011.007.547-.837Zm-20.309-1.856v-1h-1v1h1Zm0 18.041h-1v1h1v-1Zm20.013 6.873 13.195 18.35 1.624-1.167-13.196-18.35-1.623 1.167Zm14.007 16.767H275.65v2h10.824v-2Zm-10.009.421-12.062-17.01-1.631 1.157 12.062 17.01 1.631-1.157Zm-12.877-17.432h-11.134v2h11.134v-2Zm-12.134 1v17.01h2v-17.01h-2Zm1 16.01h-8.557v2.001h8.557v-2Zm-7.557 1V49.437h-2V99.85h2Zm-1-49.412h18.763v-2h-18.763v2Zm18.763 0c7.565 0 12.743 1.305 15.771 3.702l1.241-1.568c-3.57-2.827-9.32-4.134-17.012-4.134v2Zm15.789 3.716c3.033 2.29 4.654 6.092 4.654 11.676h2c0-5.963-1.746-10.477-5.449-13.272l-1.205 1.596Zm4.654 11.676c0 4.017-.871 7.186-2.529 9.586-1.651 2.39-4.147 4.112-7.579 5.125l.567 1.918c3.785-1.117 6.701-3.073 8.658-5.906 1.95-2.824 2.883-6.424 2.883-10.723h-2Zm-20.134 10.381c4.769 0 8.347-.71 10.422-2.387l-1.256-1.556c-1.499 1.21-4.45 1.943-9.166 1.943v2Zm10.422-2.387c2.12-1.712 3.052-4.512 3.052-8.097h-2c0 3.288-.854 5.367-2.308 6.541l1.256 1.556Zm3.052-8.097c0-3.444-.933-6.1-3.133-7.538l-1.094 1.674c1.374.898 2.227 2.71 2.227 5.864h2Zm-3.111-7.523c-2.059-1.426-5.532-2.034-10.157-2.034v2c4.585 0 7.504.63 9.019 1.678l1.138-1.644Zm-10.157-2.034h-10.721v2h10.721v-2Zm-11.721 1V75.21h2V57.17h-2Zm1 19.041h10.515v-2h-10.515v2Zm69.137 13.536-.707-.707-.006.006-.005.005.718.696Zm0-18.144-.718.697.005.005.006.005.707-.707Zm-17.32 0-.717-.696.717.696Zm0 18.041.728-.686-.01-.01-.011-.01-.707.706Zm-5.773 5.155-.707.707.006.006.701-.713Zm0-28.144.701.713.006-.006-.707-.707Zm28.866 0-.707.707.006.006.701-.713Zm0 28.04.707.708.006-.006.006-.007-.719-.694Zm-14.433-.442c3.753 0 6.906-1.262 9.377-3.81l-1.435-1.392c-2.064 2.127-4.684 3.202-7.942 3.202v2Zm9.367-3.799c2.548-2.548 3.798-5.838 3.798-9.779h-2c0 3.482-1.087 6.24-3.212 8.365l1.414 1.415Zm3.798-9.779c0-3.94-1.25-7.23-3.798-9.779l-1.414 1.414c2.125 2.126 3.212 4.883 3.212 8.365h2Zm-3.788-9.768c-2.471-2.547-5.624-3.81-9.377-3.81v2c3.258 0 5.878 1.076 7.942 3.203l1.435-1.393Zm-9.377-3.81c-3.753 0-6.906 1.263-9.377 3.81l1.435 1.393c2.064-2.127 4.684-3.202 7.942-3.202v-2Zm-9.377 3.81c-2.475 2.55-3.685 5.836-3.685 9.768h2c0-3.49 1.058-6.252 3.12-8.375l-1.435-1.393Zm-3.685 9.768c0 3.932 1.21 7.191 3.695 9.676l1.414-1.414c-2.051-2.05-3.109-4.77-3.109-8.262h-2Zm3.675 9.655c2.469 2.62 5.625 3.923 9.387 3.923v-2c-3.248 0-5.866-1.103-7.932-3.295l-1.455 1.372Zm9.387 9.14c-5.531 0-10.085-1.802-13.732-5.385l-1.402 1.427c4.05 3.978 9.119 5.957 15.134 5.957v-2Zm-13.726-5.378c-3.656-3.657-5.48-8.108-5.48-13.417h-2c0 5.826 2.025 10.79 6.066 14.831l1.414-1.414Zm-5.48-13.417c0-5.308 1.823-9.722 5.474-13.307l-1.402-1.427c-4.047 3.975-6.072 8.909-6.072 14.734h2Zm5.48-13.313c3.649-3.65 8.2-5.48 13.726-5.48v-2c-6.021 0-11.092 2.017-15.14 6.065l1.414 1.415Zm13.726-5.48c5.526 0 10.077 1.83 13.726 5.48l1.414-1.415c-4.049-4.048-9.12-6.066-15.14-6.066v2Zm13.732 5.486c3.651 3.585 5.474 7.999 5.474 13.307h2c0-5.826-2.025-10.76-6.072-14.734l-1.402 1.427Zm5.474 13.307c0 5.092-1.817 9.52-5.492 13.326l1.438 1.39c4.022-4.166 6.054-9.086 6.054-14.716h-2Zm-5.48 13.314c-3.649 3.649-8.2 5.48-13.726 5.48v2c6.02 0 11.091-2.017 15.14-6.066l-1.414-1.414Zm23.659 5.862v1h1v-1h-1Zm-8.041 0h-1v1h1v-1Zm0-53.506v-1h-1v1h1Zm8.041 0h1v-1h-1v1Zm0 52.505h-8.041v2.001h8.041v-2Zm-7.041 1V46.343h-2v53.505h2Zm-1-52.505h8.041v-2h-8.041v2Zm7.041-1v53.505h2V46.343h-2Zm20.824 53.505v1.001h1v-1h-1Zm-8.041 0h-1v1.001h1v-1Zm0-53.505v-1h-1v1h1Zm8.041 0h1v-1h-1v1Zm0 52.505h-8.041v2.001h8.041v-2Zm-7.041 1V46.343h-2v53.505h2Zm-1-52.505h8.041v-2h-8.041v2Zm7.041-1v53.505h2V46.343h-2Z" mask="url(#c)"/>
</svg>
