<svg width="382" height="117" viewBox="0 0 382 117" fill="none" xmlns="http://www.w3.org/2000/svg">
<path d="M27.3296 0C12.2072 0 0 12.2072 0 27.3296C0 45.5493 27.3296 72.8788 27.3296 72.8788C27.3296 72.8788 54.6591 45.5493 54.6591 27.3296C54.6591 12.2072 42.4519 0 27.3296 0ZM27.3296 9.10985C37.4415 9.10985 45.5493 17.3087 45.5493 27.3296C45.5493 37.4415 37.4415 45.5493 27.3296 45.5493C17.3087 45.5493 9.10985 37.4415 9.10985 27.3296C9.10985 17.3087 17.3087 9.10985 27.3296 9.10985Z" fill="#612CFE"/>
<path d="M34.3296 7C19.2072 7 7 19.2072 7 34.3296C7 52.5493 34.3296 79.8788 34.3296 79.8788C34.3296 79.8788 61.6591 52.5493 61.6591 34.3296C61.6591 19.2072 49.4519 7 34.3296 7ZM34.3296 16.1099C44.4415 16.1099 52.5493 24.3087 52.5493 34.3296C52.5493 44.4415 44.4415 52.5493 34.3296 52.5493C24.3087 52.5493 16.1099 44.4415 16.1099 34.3296C16.1099 24.3087 24.3087 16.1099 34.3296 16.1099Z" fill="#DA1085"/>
<path d="M30.3296 3C15.2072 3 3 15.2072 3 30.3296C3 48.5493 30.3296 75.8788 30.3296 75.8788C30.3296 75.8788 57.6591 48.5493 57.6591 30.3296C57.6591 15.2072 45.4519 3 30.3296 3ZM30.3296 12.1099C40.4415 12.1099 48.5493 20.3087 48.5493 30.3296C48.5493 40.4415 40.4415 48.5493 30.3296 48.5493C20.3087 48.5493 12.1099 40.4415 12.1099 30.3296C12.1099 20.3087 20.3087 12.1099 30.3296 12.1099Z" fill="black"/>
<path d="M305.951 82.5273C302.396 82.5273 299.301 81.873 296.664 80.5645C293.988 79.2754 291.908 77.3809 290.424 74.8809C288.939 72.3809 288.197 69.4121 288.197 65.9746C288.197 62.5566 288.939 59.6562 290.424 57.2734C291.908 54.8711 293.988 53.0645 296.664 51.8535C299.34 50.623 302.436 50.0078 305.951 50.0078C309.564 50.0078 312.699 50.6328 315.355 51.8828C318.031 53.1328 320.102 54.9492 321.566 57.332C323.031 59.6953 323.764 62.5762 323.764 65.9746C323.764 69.4121 323.031 72.3809 321.566 74.8809C320.082 77.3809 317.992 79.2852 315.297 80.5938C312.621 81.8828 309.506 82.5273 305.951 82.5273ZM305.951 73.9727C307.24 73.9727 308.197 73.3379 308.822 72.0684C309.428 70.8379 309.73 68.8066 309.73 65.9746C309.73 63.377 309.428 61.502 308.822 60.3496C308.236 59.1777 307.279 58.5918 305.951 58.5918C304.682 58.5918 303.744 59.1777 303.139 60.3496C302.533 61.502 302.23 63.377 302.23 65.9746C302.23 68.748 302.543 70.7793 303.168 72.0684C303.793 73.3379 304.721 73.9727 305.951 73.9727Z" fill="#DA1085"/>
<path d="M301.951 78.5273C298.396 78.5273 295.301 77.873 292.664 76.5645C289.988 75.2754 287.908 73.3809 286.424 70.8809C284.939 68.3809 284.197 65.4121 284.197 61.9746C284.197 58.5566 284.939 55.6562 286.424 53.2734C287.908 50.8711 289.988 49.0645 292.664 47.8535C295.34 46.623 298.436 46.0078 301.951 46.0078C305.564 46.0078 308.699 46.6328 311.355 47.8828C314.031 49.1328 316.102 50.9492 317.566 53.332C319.031 55.6953 319.764 58.5762 319.764 61.9746C319.764 65.4121 319.031 68.3809 317.566 70.8809C316.082 73.3809 313.992 75.2852 311.297 76.5938C308.621 77.8828 305.506 78.5273 301.951 78.5273ZM301.951 69.9727C303.24 69.9727 304.197 69.3379 304.822 68.0684C305.428 66.8379 305.73 64.8066 305.73 61.9746C305.73 59.377 305.428 57.502 304.822 56.3496C304.236 55.1777 303.279 54.5918 301.951 54.5918C300.682 54.5918 299.744 55.1777 299.139 56.3496C298.533 57.502 298.23 59.377 298.23 61.9746C298.23 64.748 298.543 66.7793 299.168 68.0684C299.793 69.3379 300.721 69.9727 301.951 69.9727Z" fill="#612CFE"/>
<path d="M107.768 69.4531V80H81.6641V69.4531H86.4688V43.7012H82.3379L81.0781 51.7285H72.8457V33.3887H116.703V51.7285H108.5L107.24 43.7012H102.963V69.4531H107.768ZM143.275 80H120.775V71.1816H124.555V57.6758H120.775V49.7656L138.588 48.0078V53.1055C139.213 52.1289 140.131 51.2598 141.342 50.498C142.553 49.7168 143.842 49.1113 145.209 48.6816C146.596 48.2324 147.836 48.0078 148.93 48.0078V60.4297C146.645 59.668 144.76 59.2871 143.275 59.2871C141.4 59.2871 140.15 59.834 139.525 60.9277C138.9 62.002 138.588 63.418 138.588 65.1758V71.1816H143.275V80ZM169.994 80.5273C166.361 80.5273 163.207 79.8535 160.531 78.5059C157.836 77.1777 155.766 75.2734 154.32 72.793C152.895 70.3125 152.182 67.4121 152.182 64.0918C152.182 60.8105 152.885 57.959 154.291 55.5371C155.678 53.1348 157.641 51.2793 160.18 49.9707C162.719 48.6621 165.697 48.0078 169.115 48.0078C172.26 48.0078 175.033 48.623 177.436 49.8535C179.838 51.1035 181.693 52.8711 183.002 55.1562C184.33 57.4414 184.994 60.1074 184.994 63.1543C184.994 64.209 184.838 65.2051 184.525 66.1426H166.273C166.273 67.9785 166.967 69.4531 168.354 70.5664C169.74 71.6602 171.41 72.207 173.363 72.207C174.848 72.207 176.479 71.9531 178.256 71.4453C180.033 70.918 181.82 70.1074 183.617 69.0137L184.115 69.1895V77.0703C182.104 78.2227 180.033 79.0918 177.904 79.6777C175.795 80.2441 173.158 80.5273 169.994 80.5273ZM166.273 60.1367V60.9863H173.773V60.3711C173.773 58.9844 173.451 57.793 172.807 56.7969C172.182 55.7812 171.244 55.2734 169.994 55.2734C168.959 55.2734 168.08 55.791 167.357 56.8262C166.635 57.8418 166.273 58.9453 166.273 60.1367ZM225.277 57.6758L220.238 61.8945L226.303 71.1816H230.902V80H216.928L208.344 67.168V80H189.154V71.1816H194.311V44.1699H189.154V36.2012L208.344 34.2676V62.7734L214.467 57.6758H211.244V48.623H229.965V57.6758H225.277ZM260.082 80H235.736V69.6875H240.424V43.7012H235.736V33.3887H265.678C270.521 33.3887 274.076 34.3652 276.342 36.3184C278.627 38.2715 279.77 41.5137 279.77 46.0449C279.77 49.0723 278.92 51.4062 277.221 53.0469C275.521 54.6875 273.109 55.791 269.984 56.3574C272.797 56.8066 274.818 57.8613 276.049 59.5215C277.299 61.1816 277.924 63.252 277.924 65.7324V69.5117H284.457V80H275.023C273.012 80 271.391 79.9316 270.16 79.7949C268.93 79.6387 267.953 79.2871 267.23 78.7402C266.527 78.1738 265.941 77.2949 265.473 76.1035C264.77 74.3066 264.418 71.3086 264.418 67.1094C264.418 64.707 264.027 62.9297 263.246 61.7773C262.465 60.6055 261.039 60.0195 258.969 60.0195H255.424V69.6875H260.082V80ZM255.424 43.7012V53.3691H259.438C261.566 53.3691 263.148 52.9883 264.184 52.2266C265.219 51.4648 265.736 50.127 265.736 48.2129C265.736 46.8066 265.199 45.7031 264.125 44.9023C263.07 44.1016 261.703 43.7012 260.023 43.7012H255.424ZM304.057 80.5273C300.502 80.5273 297.406 79.873 294.77 78.5645C292.094 77.2754 290.014 75.3809 288.529 72.8809C287.045 70.3809 286.303 67.4121 286.303 63.9746C286.303 60.5566 287.045 57.6562 288.529 55.2734C290.014 52.8711 292.094 51.0645 294.77 49.8535C297.445 48.623 300.541 48.0078 304.057 48.0078C307.67 48.0078 310.805 48.6328 313.461 49.8828C316.137 51.1328 318.207 52.9492 319.672 55.332C321.137 57.6953 321.869 60.5762 321.869 63.9746C321.869 67.4121 321.137 70.3809 319.672 72.8809C318.188 75.3809 316.098 77.2852 313.402 78.5938C310.727 79.8828 307.611 80.5273 304.057 80.5273ZM304.057 71.9727C305.346 71.9727 306.303 71.3379 306.928 70.0684C307.533 68.8379 307.836 66.8066 307.836 63.9746C307.836 61.377 307.533 59.502 306.928 58.3496C306.342 57.1777 305.385 56.5918 304.057 56.5918C302.787 56.5918 301.85 57.1777 301.244 58.3496C300.639 59.502 300.336 61.377 300.336 63.9746C300.336 66.748 300.648 68.7793 301.273 70.0684C301.898 71.3379 302.826 71.9727 304.057 71.9727ZM350.521 71.1816V80H326.82V71.1816H331.977V44.1699H326.82V36.2012L346.01 34.2676V71.1816H350.521ZM379.174 71.1816V80H355.473V71.1816H360.629V44.1699H355.473V36.2012L374.662 34.2676V71.1816H379.174Z" fill="black"/>
</svg>
